# xmcd
#
# Track frame offsets: 
#        150
#        20643
#        45150
#        82615
#        105067
#        126820
#        148567
#        179846
#        205375
#        231636
#        264659
#        284250
#        292741
#
# Disc length: 4265 seconds
#
# Revision: 2
# Processed by: cddbd v1.5.2PL0 Copyright (c) Steve Scherf et al.
# Submitted via: ExactAudioCopy v1.3
#
DISCID=b210a70d
DTITLE=Variouis - Jazziz Fall Into Jazz - Disc 2
DYEAR=2019
DGENRE=Jazz
TTITLE0=Kneebody - Spectro
TTITLE1=Ryan Keberle and Catharsis - Fooled and Pushed Apart
TTITLE2=Fred Hersch and the WDR Big Band - Begin Again
TTITLE3=Gregory Harrington - The Nearness of You
TTITLE4=Anat Cohen Tentet - Footsteps and Smiles
TTITLE5=Edmar Castaneda and Gregoire Maret Duo - Blueserinho
TTITLE6=Monty Alexander - Bright Mississippi
TTITLE7=Antonio Aldolfo - Obrigado
TTITLE8=Marcus Shelby Orchestra - Transitions II (New York)
TTITLE9=Dave Zino Unisphere - Michelle
TTITLE10=Ernerst Turner j - Return of Thanos
TTITLE11=Volker Kriegel l - Mouse Funk
TTITLE12=Matt Whitaker - Freedom Jazz Dance
EXTD=YEAR: 2019
EXTT0=
EXTT1=
EXTT2=
EXTT3=
EXTT4=
EXTT5=
EXTT6=
EXTT7=
EXTT8=
EXTT9=
EXTT10=
EXTT11=
EXTT12=
PLAYORDER=
